HIERARCHY
ROOT Hips
{
	OFFSET	0.00	0.00	0.00
	CHANNELS 6 Xposition Yposition Zposition Zrotation Xrotation Yrotation
	JOINT LeftUpLeg
	{
		OFFSET	 0.126116	-0.014019	-0.065224
		CHANNELS 3 Zrotation Xrotation Yrotation
		JOINT LeftLeg
		{
			OFFSET	 0.000000	 0.000000	 0.569914
			CHANNELS 3 Zrotation Xrotation Yrotation
			JOINT LeftFoot
			{
				OFFSET	 0.000000	 0.000000	 0.544423
				CHANNELS 3 Zrotation Xrotation Yrotation
				JOINT LeftToeBase
				{
					OFFSET	 0.000000	 0.000000	 0.207117
					CHANNELS 3 Zrotation Xrotation Yrotation
					End Site
					{
						OFFSET	 0.000000	 0.000000	 0.207117
					}
				}
			}
		}
	}
	JOINT RightUpLeg
	{
		OFFSET	-0.124023	-0.008373	-0.065224
		CHANNELS 3 Zrotation Xrotation Yrotation
		JOINT RightLeg
		{
			OFFSET	 0.000000	 0.000000	 0.570047
			CHANNELS 3 Zrotation Xrotation Yrotation
			JOINT RightFoot
			{
				OFFSET	 0.000000	 0.000000	 0.544354
				CHANNELS 3 Zrotation Xrotation Yrotation
				JOINT RightToeBase
				{
					OFFSET	 0.000000	 0.000000	 0.207540
					CHANNELS 3 Zrotation Xrotation Yrotation
					End Site
					{
						OFFSET	 0.000000	 0.000000	 0.207540
					}
				}
			}
		}
	}
	JOINT Spine
	{
		OFFSET	 0.000184	-0.007763	 0.117403
		CHANNELS 3 Zrotation Xrotation Yrotation
		JOINT Spine1
		{
			OFFSET	 0.000000	 0.000000	 0.137269
			CHANNELS 3 Zrotation Xrotation Yrotation
			JOINT Spine2
			{
				OFFSET	 0.000000	 0.000000	 0.156879
				CHANNELS 3 Zrotation Xrotation Yrotation
				JOINT LeftShoulder
				{
					OFFSET	 0.080501	-0.002496	 0.160144
					CHANNELS 3 Zrotation Xrotation Yrotation
					JOINT LeftArm
					{
						OFFSET	 0.000000	 0.000000	 0.164363
						CHANNELS 3 Zrotation Xrotation Yrotation
						JOINT LeftForeArm
						{
							OFFSET	 0.000000	 0.000000	 0.364576
							CHANNELS 3 Zrotation Xrotation Yrotation
							JOINT LeftHand
							{
								OFFSET	 0.000000	 0.000000	 0.360812
								CHANNELS 3 Zrotation Xrotation Yrotation
								JOINT LeftHandIndex1
								{
									OFFSET	 0.000000	 0.000000	 0.086006
									CHANNELS 3 Zrotation Xrotation Yrotation
									JOINT LeftHandIndex2
									{
										OFFSET	 0.000000	 0.000000	 0.047237
										CHANNELS 3 Zrotation Xrotation Yrotation
										JOINT LeftHandIndex3
										{
											OFFSET	-0.004284	-0.000551	 0.038165
											CHANNELS 3 Zrotation Xrotation Yrotation
											End Site
											{
												OFFSET	-0.004284	-0.000551	 0.038165
											}
										}
									}
								}
							}
						}
					}
				}
				JOINT Neck
				{
					OFFSET	 0.000000	 0.000000	 0.176489
					CHANNELS 3 Zrotation Xrotation Yrotation
					JOINT Head
					{
						OFFSET	 0.000000	-0.001747	 0.077940
						CHANNELS 3 Zrotation Xrotation Yrotation
						End Site
						{
							OFFSET	 0.000000	-0.001747	 0.077940
						}
					}
				}
				JOINT RightShoulder
				{
					OFFSET	-0.080363	 0.000306	 0.159706
					CHANNELS 3 Zrotation Xrotation Yrotation
					JOINT RightArm
					{
						OFFSET	 0.000000	 0.000000	 0.164196
						CHANNELS 3 Zrotation Xrotation Yrotation
						JOINT RightForeArm
						{
							OFFSET	 0.000000	 0.000000	 0.365611
							CHANNELS 3 Zrotation Xrotation Yrotation
							JOINT RightHand
							{
								OFFSET	 0.000000	 0.000000	 0.360648
								CHANNELS 3 Zrotation Xrotation Yrotation
								JOINT RightHandIndex1
								{
									OFFSET	 0.000000	 0.000000	 0.069977
									CHANNELS 3 Zrotation Xrotation Yrotation
									JOINT RightHandIndex2
									{
										OFFSET	 0.000000	 0.000000	 0.052305
										CHANNELS 3 Zrotation Xrotation Yrotation
										JOINT RightHandIndex3
										{
											OFFSET	 0.009002	-0.000782	 0.042196
											CHANNELS 3 Zrotation Xrotation Yrotation
											End Site
											{
												OFFSET	 0.009002	-0.000782	 0.042196
											}
										}
									}
								}
							}
						}
					}
				}
			}
		}
	}
}
MOTION
Frames:    9
Frame Time: 0.03333334
-0.401215	 0.181082	 1.218920	-174.524000	 6.689974	 14.613350	 39.064660	-13.449650	 167.432600	-9.304749	-45.713760	-7.096937	 154.407100	 75.986530	-166.592600	-2.385833	 28.452760	 0.000004	-31.615750	-34.601030	 153.014400	 6.173411	-52.183850	 3.677053	-12.546830	 77.032720	 31.957230	 2.384659	 28.388700	-0.000001	 79.545730	-16.694260	-0.992625	 45.939510	 20.878330	 18.862390	-6.055068	-2.220601	-15.163120	-91.776270	 78.527360	-180.000000	-8.613446	 25.367090	-25.447360	-4.406591	 7.320396	-69.603250	 4.793962	-27.437080	-0.553090	-4.130319	 21.525730	 0.991547	-5.167930	 0.731704	 3.519349	-1.378229	 35.397820	-2.634230	-17.640670	 7.779603	 7.854519	-22.794870	-22.487400	-16.018180	 89.782170	 78.319090	 179.992400	 35.526760	 8.273758	-7.279353	-7.145921	 0.406344	 37.665200	-25.177850	-19.532340	-93.726440	 5.716227	 19.173190	-3.685159	 5.027444	 0.246877	-9.377972	-2.350882	 35.473990	 5.254307
-0.412520	 0.199544	 1.223087	-173.603100	 6.524155	 12.414270	 40.600480	-9.114534	 169.001000	-9.292462	-41.534620	-6.570071	 152.951400	 75.877000	-164.588900	-2.385833	 28.452760	 0.000004	-29.041910	-34.678480	 156.971500	 6.085672	-51.976070	 3.597418	-7.987076	 78.054700	 25.910000	 2.384659	 28.388700	-0.000001	 76.326050	-14.147340	 0.672801	 42.704500	 17.758040	 20.913230	-5.148748	-0.968364	-14.951900	-91.776180	 78.527360	 180.000000	-10.944340	 22.529090	-18.616350	-3.594475	 4.891573	-69.538350	 5.273567	-29.008900	-0.359842	-4.130319	 21.525730	 0.991547	-5.167930	 0.731704	 3.519349	-1.378229	 35.397820	-2.634230	-17.072200	 7.676729	 8.311913	-22.189400	-22.414420	-16.228850	 89.782120	 78.305630	 179.993300	 48.562010	-4.272892	-13.645880	-8.150295	-1.229995	 46.777450	-38.594210	-3.664116	-83.381520	 5.716227	 19.173190	-3.685159	 5.027444	 0.246877	-9.377972	-2.350882	 35.473990	 5.254307
-0.419120	 0.214152	 1.226614	-172.408400	 5.984146	 11.418930	 41.740130	-5.831931	 168.686600	-9.389552	-38.084370	-6.176396	 151.789200	 76.190130	-163.060800	-2.385833	 28.452760	 0.000004	-26.816530	-33.807390	 159.607900	 5.823013	-51.784560	 3.381187	-2.127619	 79.752070	 18.548380	 2.384659	 28.388700	-0.000001	 72.523050	-12.121770	 0.836267	 40.309270	 14.730250	 22.844590	-4.170626	 0.534679	-14.899870	-91.776230	 78.527420	-180.000000	-13.200360	 21.251880	-12.258000	-2.897502	 3.119219	-71.520710	 5.696819	-31.035000	-0.303200	-4.130319	 21.525730	 0.991547	-5.167930	 0.731704	 3.519349	-1.378229	 35.397820	-2.634230	-16.328650	 7.674117	 8.249929	-21.576870	-22.701220	-15.529490	 89.782170	 78.291630	 179.993800	 50.152120	-9.665001	-0.765429	-10.697460	-0.762333	 15.320470	-41.437590	-14.897600	-64.750530	 5.716227	 19.173190	-3.685159	 5.027444	 0.246877	-9.377972	-2.350882	 35.473990	 5.254307
-0.422843	 0.223243	 1.229285	-171.484800	 5.179811	 10.691010	 42.527050	-3.050995	 168.368800	-9.635882	-34.758410	-5.855364	 146.137100	 77.119550	-157.013400	-2.385833	 28.452760	 0.000004	-24.933690	-33.352180	 161.588300	 5.453147	-51.739920	 3.088109	 4.925325	 80.399170	 10.588630	 2.384659	 28.388700	-0.000001	 69.418850	-10.444110	 1.190084	 38.700180	 11.486670	 24.424950	-3.192034	 2.283044	-14.925390	-91.776180	 78.527380	 180.000000	-15.095670	 20.820650	-8.014511	-2.498459	 1.923642	-73.201150	 5.890759	-32.700410	-0.453194	-4.130319	 21.525730	 0.991547	-5.167930	 0.731704	 3.519349	-1.378229	 35.397820	-2.634230	-15.724530	 8.272981	 8.570539	-21.206360	-23.007190	-16.263340	 89.782140	 78.289740	 179.993500	 47.786550	-11.390090	 4.044836	-12.477080	 0.072460	 2.338816	-41.693610	-20.372410	-57.836400	 5.716227	 19.173190	-3.685159	 5.027444	 0.246877	-9.377972	-2.350882	 35.473990	 5.254307
-0.423791	 0.227108	 1.230782	-170.689400	 4.244879	 9.943130	 43.049690	-1.228311	 168.060600	-10.125250	-32.978800	-5.864909	 144.402500	 77.271380	-154.762800	-2.385833	 28.452760	 0.000004	-22.934370	-32.771240	 163.281900	 4.872428	-51.307010	 2.615688	 9.785480	 80.379030	 5.414225	 2.384659	 28.388700	-0.000001	 66.998220	-8.082286	 1.330752	 37.664590	 8.642630	 25.659240	-2.324402	 3.529828	-14.495210	-91.776230	 78.527380	-180.000000	-16.477690	 20.569360	-6.423851	-2.247941	 0.986263	-73.320470	 6.118697	-33.894080	-0.587740	-4.130319	 21.525730	 0.991547	-5.167930	 0.731704	 3.519349	-1.378229	 35.397820	-2.634230	-14.705320	 8.982145	 7.599913	-20.597780	-23.801890	-14.997300	 89.782160	 78.289630	 179.993300	 44.763870	-11.660790	 3.342783	-13.675270	-0.013341	 1.679147	-41.595640	-21.566410	-56.615220	 5.716227	 19.173190	-3.685159	 5.027444	 0.246877	-9.377972	-2.350882	 35.473990	 5.254307
-0.423341	 0.228318	 1.231627	-170.043100	 3.610646	 9.885252	 44.120490	-1.007304	 167.240900	-10.822820	-32.494000	-6.173531	 143.337600	 77.303020	-153.223900	-2.385833	 28.452760	 0.000004	-20.837580	-32.295690	 163.940200	 4.036735	-50.643040	 1.944407	 14.731000	 80.066670	 0.281983	 2.384659	 28.388700	-0.000001	 65.100050	-6.523507	 0.898634	 37.202090	 6.504832	 26.491300	-1.528438	 4.638578	-14.118990	-91.776180	 78.527400	-180.000000	-17.900650	 21.008960	-5.953802	-2.046124	 0.252173	-72.869130	 6.613481	-35.016480	-0.538787	-4.130319	 21.525730	 0.991547	-5.167930	 0.731704	 3.519349	-1.378229	 35.397820	-2.634230	-13.790260	 8.457206	 7.279426	-19.862400	-23.206270	-14.187720	 89.782180	 78.288500	 179.993000	 42.529590	-11.262210	 3.130852	-14.637400	-0.055228	 1.229014	-40.466880	-22.447460	-55.086870	 5.716227	 19.173190	-3.685159	 5.027444	 0.246877	-9.377972	-2.350882	 35.473990	 5.254307
-0.422922	 0.228300	 1.232318	-169.991500	 2.903466	 9.829518	 45.217520	-0.596780	 166.550300	-11.841360	-32.037060	-6.653931	 145.514400	 77.145560	-154.492700	-2.385833	 28.452760	 0.000004	-19.520690	-31.637960	 164.423500	 3.388234	-50.158260	 1.432630	 16.308470	 79.748790	-1.172136	 2.384659	 28.388700	-0.000001	 64.320720	-4.822997	 0.648612	 37.106160	 4.564844	 27.013470	-0.924686	 5.562123	-13.611750	-91.776190	 78.527400	-180.000000	-18.756800	 21.256000	-6.071745	-1.923582	-0.168443	-72.502620	 6.698915	-35.694930	-0.583559	-4.130319	 21.525730	 0.991547	-5.167930	 0.731704	 3.519349	-1.378229	 35.397820	-2.634230	-13.259930	 8.401010	 7.532188	-19.399190	-22.775660	-15.136660	 89.782070	 78.286930	 179.992800	 41.681610	-10.686780	 3.031384	-15.535800	-0.075804	 0.948764	-38.798690	-22.263460	-53.013790	 5.716227	 19.173190	-3.685159	 5.027444	 0.246877	-9.377972	-2.350882	 35.473990	 5.254307
-0.422931	 0.228391	 1.232579	-170.601500	 3.202505	 9.488272	 46.598450	-0.638581	 166.880400	-12.465620	-31.685350	-6.928962	 145.319200	 75.745700	-153.766800	-2.385833	 28.452760	 0.000004	-18.236670	-32.416480	 164.770300	 2.652446	-50.274320	 0.868995	 21.377200	 78.890870	-6.310242	 2.384659	 28.388700	-0.000001	 65.024350	-5.533327	 1.349699	 36.918640	 5.293827	 26.571780	-1.100548	 5.060232	-13.655010	-91.776180	 78.527360	 180.000000	-18.575650	 21.225810	-6.146343	-1.930464	-0.150761	-72.493620	 6.200778	-35.405210	-0.771264	-4.130319	 21.525730	 0.991547	-5.167930	 0.731704	 3.519349	-1.378229	 35.397820	-2.634230	-13.533260	 8.297567	 8.049163	-19.494360	-22.630570	-15.715780	 89.782160	 78.289130	 179.993000	 41.917290	-10.623340	 3.142941	-15.532670	-0.077058	 0.916271	-37.391820	-20.949130	-51.412970	 5.716227	 19.173190	-3.685159	 5.027444	 0.246877	-9.377972	-2.350882	 35.473990	 5.254307
-0.422460	 0.228430	 1.232767	-171.043200	 2.953991	 10.215020	 46.414040	-1.012542	 166.363500	-13.288110	-31.826060	-7.407537	 146.538900	 74.974620	-154.376100	-2.385833	 28.452760	 0.000004	-19.185270	-31.529250	 163.851800	 2.823929	-49.801060	 0.993998	 18.172930	 79.114400	-2.994642	 2.384659	 28.388700	-0.000001	 65.284230	-5.329455	 0.864023	 37.120580	 4.220721	 26.608580	-0.969834	 5.804211	-13.673610	-91.776180	 78.527400	 180.000000	-17.355880	 20.399270	-6.589119	-1.919478	-0.192804	-72.484000	 5.054145	-34.188490	-1.155240	-4.130319	 21.525730	 0.991547	-5.167930	 0.731704	 3.519349	-1.378229	 35.397820	-2.634230	-13.252180	 8.849422	 7.067740	-19.607190	-23.213250	-15.562210	 89.782210	 78.284710	 179.993000	 43.860090	-10.575420	 3.587010	-15.968940	-0.082896	 0.838597	-36.588050	-18.650720	-48.637650	 5.716227	 19.173190	-3.685159	 5.027444	 0.246877	-9.377972	-2.350882	 35.473990	 5.254307
